<mxfile host="Electron" agent="Mozilla/5.0 (X11; Linux x86_64) AppleWebKit/537.36 (KHTML, like Gecko) draw.io/26.0.16 Chrome/132.0.6834.196 Electron/34.2.0 Safari/537.36" compressed="false" version="26.0.16">
  <diagram id="L87FYiakqSn3nDc2YnYG" name="Seite-1">
    <mxGraphModel dx="768" dy="708" grid="1" gridSize="10" guides="1" tooltips="1" connect="1" arrows="1" fold="1" page="1" pageScale="1" pageWidth="827" pageHeight="1169" math="0" shadow="0">
      <root>
        <mxCell id="0" />
        <mxCell id="1" parent="0" />
        <mxCell id="EbMSTE7M3k82zRTxyqx0-23" value="" style="rounded=1;whiteSpace=wrap;html=1;fillColor=#f5f5f5;strokeColor=#666666;fontColor=#333333;arcSize=2;" parent="1" vertex="1">
          <mxGeometry x="115" y="161" width="210" height="130" as="geometry" />
        </mxCell>
        <mxCell id="EbMSTE7M3k82zRTxyqx0-1" value="" style="image;html=1;image=img/lib/clip_art/computers/Laptop_128x128.png;labelBackgroundColor=#ffffff;" parent="1" vertex="1">
          <mxGeometry x="133" y="381" width="70" height="70" as="geometry" />
        </mxCell>
        <mxCell id="EbMSTE7M3k82zRTxyqx0-4" value="&lt;b&gt;Managed Notebook, Desktop-PC,&lt;/b&gt;&lt;div&gt;&lt;b&gt;VM or Server&lt;/b&gt;&lt;br&gt;with OCO Agent installed&lt;br&gt;Linux, macOS &amp;amp; Windows&lt;/div&gt;" style="image;html=1;image=img/lib/clip_art/computers/Monitor_Tower_128x128.png;labelBackgroundColor=#ffffff;" parent="1" vertex="1">
          <mxGeometry x="216.5" y="381" width="70" height="70" as="geometry" />
        </mxCell>
        <mxCell id="EbMSTE7M3k82zRTxyqx0-5" value="&lt;b&gt;Management PC&lt;/b&gt;" style="image;html=1;image=img/lib/clip_art/computers/Workstation_128x128.png;labelBackgroundColor=#ffffff;" parent="1" vertex="1">
          <mxGeometry x="541" y="181" width="80" height="80" as="geometry" />
        </mxCell>
        <mxCell id="EbMSTE7M3k82zRTxyqx0-6" value="" style="image;html=1;image=img/lib/clip_art/computers/Virtual_Machine_128x128.png;labelBackgroundColor=#ffffff;" parent="1" vertex="1">
          <mxGeometry x="300" y="381" width="70" height="70" as="geometry" />
        </mxCell>
        <mxCell id="EbMSTE7M3k82zRTxyqx0-7" value="&lt;b&gt;OCO Server&lt;/b&gt;" style="image;html=1;image=img/lib/clip_art/computers/Server_128x128.png;labelBackgroundColor=#ffffff;" parent="1" vertex="1">
          <mxGeometry x="341" y="181" width="80" height="80" as="geometry" />
        </mxCell>
        <mxCell id="EbMSTE7M3k82zRTxyqx0-8" value="" style="endArrow=classic;html=1;strokeWidth=2;fillColor=#f8cecc;strokeColor=#b85450;exitX=0;exitY=0.5;exitDx=0;exitDy=0;entryX=1;entryY=0.5;entryDx=0;entryDy=0;endFill=1;" parent="1" source="EbMSTE7M3k82zRTxyqx0-5" target="EbMSTE7M3k82zRTxyqx0-7" edge="1">
          <mxGeometry width="50" height="50" relative="1" as="geometry">
            <mxPoint x="241" y="291" as="sourcePoint" />
            <mxPoint x="291" y="241" as="targetPoint" />
          </mxGeometry>
        </mxCell>
        <mxCell id="EbMSTE7M3k82zRTxyqx0-14" value="" style="endArrow=classic;html=1;strokeWidth=2;fillColor=#f8cecc;strokeColor=#b85450;exitX=0.5;exitY=0;exitDx=0;exitDy=0;startArrow=classic;startFill=1;" parent="1" source="EbMSTE7M3k82zRTxyqx0-4" edge="1">
          <mxGeometry width="50" height="50" relative="1" as="geometry">
            <mxPoint x="591" y="401" as="sourcePoint" />
            <mxPoint x="350" y="290" as="targetPoint" />
            <Array as="points">
              <mxPoint x="252" y="320" />
              <mxPoint x="350" y="320" />
            </Array>
          </mxGeometry>
        </mxCell>
        <mxCell id="EbMSTE7M3k82zRTxyqx0-16" value="&lt;i&gt;Administrator&lt;/i&gt;" style="image;html=1;image=img/lib/clip_art/people/Farmer_Woman_128x128.png;labelBackgroundColor=#ffffff;" parent="1" vertex="1">
          <mxGeometry x="651" y="191" width="60" height="60" as="geometry" />
        </mxCell>
        <mxCell id="EbMSTE7M3k82zRTxyqx0-17" value="" style="image;html=1;image=img/lib/clip_art/people/Nurse_Man_128x128.png;labelBackgroundColor=#ffffff;" parent="1" vertex="1">
          <mxGeometry x="161.5" y="520.5" width="60" height="65" as="geometry" />
        </mxCell>
        <mxCell id="EbMSTE7M3k82zRTxyqx0-18" value="&lt;i&gt;Users&lt;/i&gt;" style="image;html=1;image=img/lib/clip_art/people/Pilot_Man_128x128.png;labelBackgroundColor=#ffffff;" parent="1" vertex="1">
          <mxGeometry x="221.5" y="520.5" width="60" height="65" as="geometry" />
        </mxCell>
        <mxCell id="EbMSTE7M3k82zRTxyqx0-19" value="" style="image;html=1;image=img/lib/clip_art/people/Construction_Worker_Man_128x128.png;labelBackgroundColor=#ffffff;" parent="1" vertex="1">
          <mxGeometry x="281.5" y="520.5" width="60" height="65" as="geometry" />
        </mxCell>
        <mxCell id="EbMSTE7M3k82zRTxyqx0-20" value="HTTPS" style="text;html=1;strokeColor=none;fillColor=none;align=center;verticalAlign=middle;whiteSpace=wrap;rounded=0;labelBackgroundColor=#ffffff;" parent="1" vertex="1">
          <mxGeometry x="431" y="201" width="110" height="20" as="geometry" />
        </mxCell>
        <mxCell id="EbMSTE7M3k82zRTxyqx0-21" value="OCO Client&lt;div&gt;(Web Frontend)&lt;/div&gt;" style="text;html=1;strokeColor=none;fillColor=none;align=center;verticalAlign=middle;whiteSpace=wrap;rounded=0;labelBackgroundColor=#ffffff;" parent="1" vertex="1">
          <mxGeometry x="431" y="223" width="110" height="29" as="geometry" />
        </mxCell>
        <mxCell id="EbMSTE7M3k82zRTxyqx0-22" value="&lt;b&gt;LDAP Server&lt;/b&gt;" style="image;html=1;image=img/lib/clip_art/computers/Server_128x128.png;labelBackgroundColor=none;" parent="1" vertex="1">
          <mxGeometry x="135" y="181" width="80" height="80" as="geometry" />
        </mxCell>
        <mxCell id="EbMSTE7M3k82zRTxyqx0-24" value="" style="endArrow=classic;html=1;strokeWidth=2;fillColor=#ffe6cc;strokeColor=#d79b00;exitX=0;exitY=0.5;exitDx=0;exitDy=0;entryX=1;entryY=0.5;entryDx=0;entryDy=0;" parent="1" source="EbMSTE7M3k82zRTxyqx0-7" target="EbMSTE7M3k82zRTxyqx0-22" edge="1">
          <mxGeometry width="50" height="50" relative="1" as="geometry">
            <mxPoint x="341" y="221" as="sourcePoint" />
            <mxPoint x="231" y="221" as="targetPoint" />
          </mxGeometry>
        </mxCell>
        <mxCell id="EbMSTE7M3k82zRTxyqx0-25" value="LDAP(S)" style="text;html=1;strokeColor=none;fillColor=none;align=center;verticalAlign=middle;whiteSpace=wrap;rounded=0;" parent="1" vertex="1">
          <mxGeometry x="225" y="201" width="110" height="20" as="geometry" />
        </mxCell>
        <mxCell id="EbMSTE7M3k82zRTxyqx0-27" value="optional admin&lt;br&gt;authentication&lt;br&gt;via LDAP(S)" style="text;html=1;strokeColor=none;fillColor=none;align=right;verticalAlign=middle;whiteSpace=wrap;rounded=0;fontColor=#666666;" parent="1" vertex="1">
          <mxGeometry x="228" y="241" width="90" height="43" as="geometry" />
        </mxCell>
        <mxCell id="WlS1DUhGfTOTPNGKI5CN-1" value="" style="aspect=fixed;perimeter=ellipsePerimeter;html=1;align=center;shadow=0;dashed=0;spacingTop=3;image;image=img/lib/active_directory/cd_dvd.svg;labelBackgroundColor=#ffffff;labelPosition=center;verticalLabelPosition=bottom;verticalAlign=top;" parent="1" vertex="1">
          <mxGeometry x="222" y="342" width="22" height="22" as="geometry" />
        </mxCell>
        <mxCell id="WlS1DUhGfTOTPNGKI5CN-3" value="Software Installation" style="text;html=1;strokeColor=none;fillColor=none;align=right;verticalAlign=middle;whiteSpace=wrap;rounded=0;labelBackgroundColor=#ffffff;" parent="1" vertex="1">
          <mxGeometry x="100" y="343" width="120" height="20" as="geometry" />
        </mxCell>
        <mxCell id="WlS1DUhGfTOTPNGKI5CN-4" value="" style="aspect=fixed;html=1;points=[];align=center;image;fontSize=12;image=img/lib/mscae/Info_2.svg;labelBackgroundColor=#ffffff;" parent="1" vertex="1">
          <mxGeometry x="223" y="319" width="20" height="20" as="geometry" />
        </mxCell>
        <mxCell id="WlS1DUhGfTOTPNGKI5CN-5" value="Inventory Information" style="text;html=1;strokeColor=none;fillColor=none;align=right;verticalAlign=middle;whiteSpace=wrap;rounded=0;labelBackgroundColor=#ffffff;" parent="1" vertex="1">
          <mxGeometry x="100" y="319" width="120" height="20" as="geometry" />
        </mxCell>
        <mxCell id="0ckBjjSDWqoFEBFjUUXl-1" value="" style="endArrow=classic;html=1;strokeWidth=2;fillColor=#f8cecc;strokeColor=#b85450;endFill=1;exitX=0;exitY=0.5;exitDx=0;exitDy=0;" parent="1" source="0ckBjjSDWqoFEBFjUUXl-4" edge="1">
          <mxGeometry width="50" height="50" relative="1" as="geometry">
            <mxPoint x="540" y="119" as="sourcePoint" />
            <mxPoint x="380" y="179" as="targetPoint" />
            <Array as="points">
              <mxPoint x="380" y="81" />
            </Array>
          </mxGeometry>
        </mxCell>
        <mxCell id="0ckBjjSDWqoFEBFjUUXl-2" value="HTTPS" style="text;html=1;strokeColor=none;fillColor=none;align=center;verticalAlign=middle;whiteSpace=wrap;rounded=0;labelBackgroundColor=#ffffff;" parent="1" vertex="1">
          <mxGeometry x="381" y="60" width="109" height="20" as="geometry" />
        </mxCell>
        <mxCell id="0ckBjjSDWqoFEBFjUUXl-3" value="OCO Client API&lt;br&gt;&lt;font style=&quot;font-size: 10px&quot;&gt;e.g. for Continuous Delivery/Deployment&lt;/font&gt;&lt;div&gt;&lt;font style=&quot;font-size: 10px&quot;&gt;(optional)&lt;/font&gt;&lt;/div&gt;" style="text;html=1;strokeColor=none;fillColor=none;align=center;verticalAlign=middle;whiteSpace=wrap;rounded=0;labelBackgroundColor=none;" parent="1" vertex="1">
          <mxGeometry x="381" y="83" width="109" height="57" as="geometry" />
        </mxCell>
        <mxCell id="0ckBjjSDWqoFEBFjUUXl-4" value="&lt;b&gt;e.g. Continuous Integration Server&lt;/b&gt;&lt;br&gt;automatically creating OCO packages" style="image;html=1;image=img/lib/clip_art/computers/Server_128x128.png" parent="1" vertex="1">
          <mxGeometry x="541" y="41" width="80" height="80" as="geometry" />
        </mxCell>
        <mxCell id="v4N5gA6z14SZA91JUU5O-1" value="HTTPS" style="text;html=1;strokeColor=none;fillColor=none;align=center;verticalAlign=middle;whiteSpace=wrap;rounded=0;labelBackgroundColor=#ffffff;" vertex="1" parent="1">
          <mxGeometry x="255" y="300" width="92" height="20" as="geometry" />
        </mxCell>
        <mxCell id="v4N5gA6z14SZA91JUU5O-2" value="OCO Agent API" style="text;html=1;strokeColor=none;fillColor=none;align=center;verticalAlign=middle;whiteSpace=wrap;rounded=0;labelBackgroundColor=#ffffff;" vertex="1" parent="1">
          <mxGeometry x="255" y="320" width="92" height="20" as="geometry" />
        </mxCell>
        <mxCell id="v4N5gA6z14SZA91JUU5O-3" value="" style="endArrow=classic;html=1;strokeWidth=2;fillColor=#f8cecc;strokeColor=#b85450;startArrow=none;startFill=0;" edge="1" parent="1">
          <mxGeometry width="50" height="50" relative="1" as="geometry">
            <mxPoint x="520" y="360" as="sourcePoint" />
            <mxPoint x="410" y="290" as="targetPoint" />
            <Array as="points">
              <mxPoint x="520" y="320" />
              <mxPoint x="410" y="320" />
            </Array>
          </mxGeometry>
        </mxCell>
        <mxCell id="v4N5gA6z14SZA91JUU5O-4" value="&lt;b&gt;Managed&lt;/b&gt;&lt;div&gt;&lt;b&gt;iPhone/iPad&lt;/b&gt;&lt;/div&gt;" style="image;html=1;image=img/lib/clip_art/telecommunication/iPhone_128x128.png" vertex="1" parent="1">
          <mxGeometry x="485.5" y="365.5" width="70" height="70" as="geometry" />
        </mxCell>
        <mxCell id="v4N5gA6z14SZA91JUU5O-5" value="&lt;b&gt;Managed&lt;/b&gt;&lt;div&gt;&lt;b&gt;Android Device&lt;/b&gt;&lt;/div&gt;" style="image;html=1;image=img/lib/clip_art/telecommunication/HTC_smartphone_128x128.png" vertex="1" parent="1">
          <mxGeometry x="622.5" y="500" width="70" height="70" as="geometry" />
        </mxCell>
        <mxCell id="v4N5gA6z14SZA91JUU5O-6" value="" style="endArrow=oval;html=1;strokeWidth=2;fillColor=#f8cecc;strokeColor=#b85450;startArrow=classic;startFill=1;endFill=1;" edge="1" parent="1">
          <mxGeometry width="50" height="50" relative="1" as="geometry">
            <mxPoint x="490" y="540" as="sourcePoint" />
            <mxPoint x="463" y="320" as="targetPoint" />
            <Array as="points">
              <mxPoint x="463" y="540" />
            </Array>
          </mxGeometry>
        </mxCell>
        <mxCell id="v4N5gA6z14SZA91JUU5O-7" value="&lt;b&gt;Apple Push&lt;/b&gt;&lt;div&gt;&lt;b&gt;Notification Service&lt;/b&gt;&lt;/div&gt;" style="image;html=1;image=img/lib/clip_art/computers/Server_Rack_128x128.png" vertex="1" parent="1">
          <mxGeometry x="490.5" y="506.5" width="60" height="75" as="geometry" />
        </mxCell>
        <mxCell id="v4N5gA6z14SZA91JUU5O-8" value="&lt;b&gt;Google Android&lt;/b&gt;&lt;div&gt;&lt;b&gt;Management API&lt;/b&gt;&lt;/div&gt;" style="image;html=1;image=img/lib/clip_art/computers/Server_Rack_128x128.png" vertex="1" parent="1">
          <mxGeometry x="627.5" y="363" width="60" height="75" as="geometry" />
        </mxCell>
        <mxCell id="v4N5gA6z14SZA91JUU5O-9" value="" style="endArrow=none;html=1;strokeWidth=2;fillColor=#dae8fc;strokeColor=#6c8ebf;startArrow=classic;startFill=1;endFill=1;" edge="1" parent="1">
          <mxGeometry width="50" height="50" relative="1" as="geometry">
            <mxPoint x="519.5" y="471.5" as="sourcePoint" />
            <mxPoint x="519.5" y="501.5" as="targetPoint" />
          </mxGeometry>
        </mxCell>
        <mxCell id="v4N5gA6z14SZA91JUU5O-12" value="" style="endArrow=classic;html=1;strokeWidth=2;fillColor=#f8cecc;strokeColor=#b85450;startArrow=classic;startFill=1;" edge="1" parent="1">
          <mxGeometry width="50" height="50" relative="1" as="geometry">
            <mxPoint x="657" y="360" as="sourcePoint" />
            <mxPoint x="410" y="290" as="targetPoint" />
            <Array as="points">
              <mxPoint x="657" y="320" />
              <mxPoint x="507" y="320" />
              <mxPoint x="410" y="320" />
            </Array>
          </mxGeometry>
        </mxCell>
        <mxCell id="v4N5gA6z14SZA91JUU5O-13" value="" style="endArrow=classic;html=1;strokeWidth=2;fillColor=#dae8fc;strokeColor=#6c8ebf;startArrow=classic;startFill=1;endFill=1;" edge="1" parent="1">
          <mxGeometry width="50" height="50" relative="1" as="geometry">
            <mxPoint x="657.3" y="472.5" as="sourcePoint" />
            <mxPoint x="657.3" y="502.5" as="targetPoint" />
          </mxGeometry>
        </mxCell>
        <mxCell id="v4N5gA6z14SZA91JUU5O-14" value="HTTPS" style="text;html=1;strokeColor=none;fillColor=none;align=center;verticalAlign=middle;whiteSpace=wrap;rounded=0;labelBackgroundColor=#ffffff;" vertex="1" parent="1">
          <mxGeometry x="527" y="300" width="119" height="20" as="geometry" />
        </mxCell>
        <mxCell id="v4N5gA6z14SZA91JUU5O-15" value="Google APIs" style="text;html=1;strokeColor=none;fillColor=none;align=center;verticalAlign=middle;whiteSpace=wrap;rounded=0;labelBackgroundColor=#ffffff;" vertex="1" parent="1">
          <mxGeometry x="527" y="320" width="119" height="20" as="geometry" />
        </mxCell>
        <mxCell id="v4N5gA6z14SZA91JUU5O-16" value="" style="endArrow=classic;html=1;strokeWidth=2;fillColor=#f8cecc;strokeColor=#b85450;startArrow=none;startFill=0;" edge="1" parent="1">
          <mxGeometry width="50" height="50" relative="1" as="geometry">
            <mxPoint x="350" y="560" as="sourcePoint" />
            <mxPoint x="381" y="290" as="targetPoint" />
            <Array as="points">
              <mxPoint x="381" y="560" />
            </Array>
          </mxGeometry>
        </mxCell>
        <mxCell id="v4N5gA6z14SZA91JUU5O-19" value="HTTPS - Software Self Service Portal" style="text;html=1;strokeColor=none;fillColor=none;align=center;verticalAlign=middle;whiteSpace=wrap;rounded=0;labelBackgroundColor=#ffffff;rotation=90;" vertex="1" parent="1">
          <mxGeometry x="271.82" y="429.69" width="239.37" height="17.5" as="geometry" />
        </mxCell>
        <mxCell id="v4N5gA6z14SZA91JUU5O-20" value="HTTPS - Apple APIs" style="text;html=1;strokeColor=none;fillColor=none;align=center;verticalAlign=middle;whiteSpace=wrap;rounded=0;labelBackgroundColor=#ffffff;rotation=-90;" vertex="1" parent="1">
          <mxGeometry x="333.13" y="427.88" width="237.75" height="17.5" as="geometry" />
        </mxCell>
      </root>
    </mxGraphModel>
  </diagram>
</mxfile>
